<svg width="28" height="35" viewBox="0 0 28 35" fill="none" xmlns="http://www.w3.org/2000/svg">
<path fill-rule="evenodd" clip-rule="evenodd" d="M28 26.2146C27.2343 27.9137 26.8688 28.6721 25.8828 30.1733C24.5091 32.2696 22.571 34.8807 20.1693 34.9028C18.0359 34.9228 17.4876 33.5116 14.5915 33.5286C11.6953 33.5456 11.0917 34.9279 8.95831 34.908C6.55664 34.8866 4.72167 32.5288 3.34655 30.431C-0.497313 24.568 -0.898943 17.6881 1.47178 14.0308C3.15642 11.4301 5.81528 9.91042 8.31423 9.91042C10.8589 9.91042 12.4588 11.3082 14.5634 11.3082C16.6048 11.3082 17.848 9.9082 20.7906 9.9082C23.0146 9.9082 25.3713 11.1214 27.0508 13.2178C21.5481 16.2386 22.4428 24.1094 28 26.2146Z" fill="white"/>
<path fill-rule="evenodd" clip-rule="evenodd" d="M19.2918 6.30519C20.4013 4.9048 21.2424 2.92907 20.9366 0.908203C19.1243 1.03004 17.0062 2.16419 15.769 3.64205C14.6457 4.98302 13.7182 6.97229 14.0791 8.90591C16.0558 8.96683 18.1028 7.80486 19.2918 6.30519Z" fill="white"/>
</svg>
