<svg width="90" height="119" viewBox="0 0 90 119" fill="none" xmlns="http://www.w3.org/2000/svg">
<path d="M21.0667 0.0225767L59.8205 7.76698C69.2343 9.64822 75.9814 13.9879 80.0617 20.7859C84.2675 27.5003 85.6074 34.6753 84.0815 42.311C82.5348 50.0513 78.5297 56.2126 72.0665 60.7949C65.7078 65.3981 57.8215 66.759 48.4077 64.8778L41.3472 63.4669L38.9016 75.7049L21.0153 72.1306L26.6903 43.7321L50.8526 48.5606C54.7228 49.334 57.986 48.7895 60.6425 46.9273C63.4244 44.9814 65.1289 42.4395 65.756 39.3015C66.404 36.059 65.8596 33.0676 64.1229 30.3275C62.3862 27.5874 59.5304 25.8202 55.5557 25.0259L17.5864 17.4382L21.0667 0.0225767ZM32.8512 111.697L12.4545 107.621L16.6873 86.4399L37.084 90.5159L32.8512 111.697Z" fill="#E94C1F"/>
</svg>
