<svg width="191" height="75" viewBox="0 0 191 75" fill="none" xmlns="http://www.w3.org/2000/svg">
<mask id="mask0_1_16" style="mask-type:luminance" maskUnits="userSpaceOnUse" x="6" y="11" width="54" height="53">
<path d="M52.8224 11.2148H12.9432C9.46568 11.2148 6.64655 14.0392 6.64655 17.5233V57.4765C6.64655 60.9606 9.46568 63.7849 12.9432 63.7849H52.8224C56.2999 63.7849 59.1191 60.9606 59.1191 57.4765V17.5233C59.1191 14.0392 56.2999 11.2148 52.8224 11.2148Z" fill="white"/>
</mask>
<g mask="url(#mask0_1_16)">
<path d="M32.9269 11.2166C38.1649 11.2166 43.4029 11.2062 48.6409 11.2191C54.34 11.2321 59.0292 15.767 59.0679 21.4964C59.1374 32.1381 59.1348 42.7824 59.0679 53.4241C59.0318 59.1328 54.4508 63.6806 48.6486 63.7246C38.1288 63.8048 27.6091 63.8022 17.0893 63.7246C11.1351 63.6858 6.66234 59.0165 6.65718 53.0415C6.6443 42.6583 6.6443 32.2751 6.65718 21.8893C6.66491 15.7903 11.251 11.2243 17.3392 11.2191C22.536 11.214 27.7302 11.2166 32.9269 11.2166ZM32.6513 19.9296C30.5489 19.9296 28.7144 19.9735 26.8799 19.9115C26.0374 19.883 25.5659 20.1778 25.1511 20.9069C21.4925 27.3239 17.8133 33.7308 14.1006 40.1168C13.6781 40.8459 13.6703 41.394 14.098 42.1153C15.9531 45.2593 17.754 48.4342 19.5808 51.5937C19.7818 51.9401 20.0368 52.2555 20.4027 52.7829C24.5225 41.7301 28.5469 30.9358 32.6513 19.927V19.9296ZM45.2966 52.6278C45.5594 52.4313 45.6959 52.3796 45.7527 52.2814C47.7983 48.7522 49.8544 45.2283 51.8512 41.6681C52.0289 41.3526 51.9542 40.7321 51.761 40.3909C48.0174 33.8238 44.2428 27.2749 40.458 20.7311C40.2802 20.4234 39.9504 19.9968 39.6799 19.989C37.5672 19.927 35.4545 19.9554 33.1151 19.9554C37.2245 30.9746 41.2386 41.7379 45.2992 52.6278H45.2966ZM21.1576 53.3983H44.3433C40.6873 49.4969 36.8277 45.3782 32.8084 41.089C28.7943 45.3291 24.9373 49.4064 21.1602 53.3983H21.1576Z" fill="#E94C1F"/>
</g>
<mask id="mask1_1_16" style="mask-type:luminance" maskUnits="userSpaceOnUse" x="73" y="18" width="116" height="39">
<path d="M188.551 18.5747H73.1117V56.4252H188.551V18.5747Z" fill="white"/>
</mask>
<g mask="url(#mask1_1_16)">
<path d="M78.58 46.9626H75.0539V27.2383H88.7765V30.6827H78.58V46.9626ZM97.8676 31.9191C99.9637 31.8995 101.688 32.6159 103.039 34.0682C104.391 35.5205 105.067 37.385 105.067 39.6616C105.067 41.9383 104.381 43.8028 103.01 45.2551C101.658 46.7074 99.9441 47.414 97.8676 47.3747C96.7901 47.3747 95.8204 47.149 94.9585 46.6976C94.0965 46.2266 93.4109 45.6084 92.9015 44.843H92.7546V52.8504H89.4048V32.3313H92.7546V34.3626H92.9015C93.4109 33.6364 94.0965 33.0574 94.9585 32.6257C95.8204 32.1743 96.7901 31.9387 97.8676 31.9191ZM97.1917 44.1364C98.5042 44.1364 99.5719 43.7046 100.395 42.8411C101.237 41.9775 101.658 40.9079 101.658 39.6322C101.658 38.3565 101.237 37.2869 100.395 36.4233C99.5719 35.5598 98.5042 35.128 97.1917 35.128C95.8988 35.128 94.8409 35.5598 94.0182 36.4233C93.1954 37.2869 92.784 38.3565 92.784 39.6322C92.784 40.8883 93.1954 41.9579 94.0182 42.8411C94.8409 43.7046 95.8988 44.1364 97.1917 44.1364ZM114.576 44.0481L118.66 32.3313H122.127L116.015 49.2883C115.153 51.663 113.557 52.8504 111.226 52.8504H107.435V49.5238H111.196C111.999 49.5238 112.568 49.2294 112.901 48.6406L106.142 32.3313H109.874L114.576 44.0481ZM134.951 39.3673V39.485C135.676 39.7402 136.224 40.1719 136.596 40.7803C136.969 41.3887 137.155 42.0659 137.155 42.8116C137.155 43.9107 136.753 44.8822 135.95 45.7261C135.147 46.5504 134.05 46.9626 132.659 46.9626H124.049V43.7537H132.277C132.708 43.7537 133.051 43.6163 133.305 43.3416C133.56 43.0668 133.687 42.7528 133.687 42.3995C133.687 42.0659 133.56 41.7715 133.305 41.5163C133.07 41.2612 132.727 41.1336 132.277 41.1336H126.459V38.1602H132.012C132.443 38.1602 132.776 38.0327 133.012 37.7775C133.266 37.5028 133.394 37.1887 133.394 36.8355C133.394 36.4822 133.276 36.178 133.041 35.9229C132.806 35.6677 132.463 35.5401 132.012 35.5401H124.049V32.3313H132.336C133.766 32.3313 134.873 32.7238 135.656 33.5088C136.44 34.2743 136.832 35.1967 136.832 36.2761C136.832 36.9238 136.665 37.5322 136.332 38.1014C136.019 38.6705 135.558 39.0925 134.951 39.3673Z" fill="white"/>
<path d="M154.774 32.3313V46.9626H151.394V35.5991H145.429C145.429 37.5813 145.39 39.4753 145.312 41.2809C145.273 42.2033 145.155 43.0178 144.959 43.7243C144.783 44.4112 144.538 44.9608 144.225 45.3729C143.911 45.7655 143.608 46.0893 143.314 46.3444C143.02 46.5799 142.638 46.7468 142.168 46.8449C141.717 46.943 141.364 47.0019 141.11 47.0215C140.855 47.0412 140.512 47.051 140.081 47.051H139.464V43.6949H139.788C140.101 43.6949 140.346 43.6851 140.522 43.6655C140.698 43.6262 140.914 43.5379 141.169 43.4005C141.423 43.2631 141.619 43.008 141.756 42.6351C141.913 42.2622 142.011 41.7813 142.05 41.1926C142.128 40.2701 142.168 37.3164 142.168 32.3313H154.774ZM165.811 47.3748C163.48 47.3748 161.58 46.6388 160.11 45.1669C158.641 43.6753 157.907 41.8304 157.907 39.6323C157.907 37.4341 158.631 35.5991 160.081 34.1271C161.55 32.6552 163.46 31.9192 165.811 31.9192C168.123 31.9192 169.994 32.6552 171.424 34.1271C172.873 35.5991 173.598 37.4341 173.598 39.6323C173.598 41.8304 172.873 43.6753 171.424 45.1669C169.974 46.6388 168.103 47.3748 165.811 47.3748ZM165.811 44.1365C167.104 44.1365 168.162 43.7047 168.985 42.8412C169.807 41.9776 170.219 40.9178 170.219 39.6617C170.219 38.386 169.807 37.3262 168.985 36.4823C168.162 35.6187 167.104 35.1869 165.811 35.1869C164.479 35.1869 163.392 35.6187 162.549 36.4823C161.727 37.3262 161.315 38.386 161.315 39.6617C161.315 40.9178 161.727 41.9776 162.549 42.8412C163.392 43.7047 164.479 44.1365 165.811 44.1365ZM188.079 32.3313V35.6285H180.175V46.9626H176.795V32.3313H188.079Z" fill="#E95420"/>
</g>
</svg>
