<svg width="145" height="45" viewBox="0 0 145 45" fill="none" xmlns="http://www.w3.org/2000/svg">
<mask id="mask0_1_226" style="mask-type:luminance" maskUnits="userSpaceOnUse" x="5" y="2" width="40" height="41">
<path d="M40.1007 2.52344H9.826C7.18595 2.52344 5.04578 4.66996 5.04578 7.31783V37.6823C5.04578 40.3302 7.18595 42.4767 9.826 42.4767H40.1007C42.7408 42.4767 44.8809 40.3302 44.8809 37.6823V7.31783C44.8809 4.66996 42.7408 2.52344 40.1007 2.52344Z" fill="white"/>
</mask>
<g mask="url(#mask0_1_226)">
<path d="M24.9969 2.52473C28.9734 2.52473 32.9499 2.51684 36.9264 2.52664C41.2529 2.5365 44.8128 5.98303 44.8421 10.3373C44.8949 18.4251 44.893 26.5148 44.8421 34.6025C44.8147 38.9411 41.337 42.3974 36.9322 42.4308C28.946 42.4917 20.9598 42.4898 12.9736 42.4308C8.45336 42.4013 5.05782 38.8526 5.0539 34.3117C5.04413 26.4204 5.04413 18.5292 5.0539 10.636C5.05977 6.00071 8.54137 2.53059 13.1633 2.52664C17.1085 2.52276 21.0517 2.52473 24.9969 2.52473ZM24.7876 9.14658C23.1916 9.14658 21.7989 9.17998 20.4062 9.13284C19.7666 9.11121 19.4087 9.33521 19.0938 9.88934C16.3163 14.7663 13.5232 19.6355 10.7047 24.4889C10.3839 25.043 10.378 25.4596 10.7027 26.0078C12.111 28.3972 13.4782 30.8101 14.865 33.2113C15.0176 33.4746 15.2112 33.7143 15.489 34.1151C18.6166 25.715 21.6718 17.5114 24.7876 9.14461V9.14658ZM34.3875 33.9973C34.587 33.8479 34.6907 33.8086 34.7337 33.734C36.2867 31.0518 37.8476 28.3736 39.3635 25.6678C39.4984 25.4281 39.4417 24.9565 39.295 24.6972C36.453 19.7062 33.5875 14.729 30.7142 9.75574C30.5792 9.52188 30.3289 9.19767 30.1235 9.19176C28.5196 9.14461 26.9157 9.16624 25.1397 9.16624C28.2595 17.5408 31.3068 25.7209 34.3894 33.9973H34.3875ZM16.0621 34.5828H33.6638C30.8883 31.6177 27.9582 28.4875 24.9069 25.2277C21.8595 28.4502 18.9315 31.549 16.0641 34.5828H16.0621Z" fill="#E94C1F"/>
</g>
<mask id="mask1_1_226" style="mask-type:luminance" maskUnits="userSpaceOnUse" x="55" y="8" width="89" height="29">
<path d="M143.141 8.11694H55.5037V36.8833H143.141V8.11694Z" fill="white"/>
</mask>
<g mask="url(#mask1_1_226)">
<path d="M59.655 29.6916H56.9781V14.7012H67.3958V17.3189H59.655V29.6916ZM74.2974 18.2586C75.8886 18.2437 77.1974 18.7881 78.2235 19.8919C79.2497 20.9957 79.7627 22.4127 79.7627 24.1429C79.7627 25.8732 79.2422 27.2902 78.2012 28.394C77.175 29.4977 75.8738 30.0347 74.2974 30.0049C73.4794 30.0049 72.7433 29.8333 72.0889 29.4903C71.4345 29.1323 70.914 28.6624 70.5274 28.0807H70.4158V34.1664H67.8727V18.5718H70.4158V20.1156H70.5274C70.914 19.5638 71.4345 19.1237 72.0889 18.7956C72.7433 18.4525 73.4794 18.2735 74.2974 18.2586ZM73.7843 27.5438C74.7807 27.5438 75.5912 27.2156 76.2158 26.5593C76.8553 25.903 77.175 25.0901 77.175 24.1206C77.175 23.151 76.8553 22.3381 76.2158 21.6818C75.5912 21.0255 74.7807 20.6974 73.7843 20.6974C72.8027 20.6974 71.9997 21.0255 71.3751 21.6818C70.7504 22.3381 70.4381 23.151 70.4381 24.1206C70.4381 25.0752 70.7504 25.8881 71.3751 26.5593C71.9997 27.2156 72.8027 27.5438 73.7843 27.5438ZM86.9814 27.4766L90.0822 18.5718H92.7145L88.0745 31.4592C87.4201 33.264 86.2081 34.1664 84.4383 34.1664H81.5606V31.6382H84.416C85.0258 31.6382 85.457 31.4144 85.7099 30.9669L80.5791 18.5718H83.4122L86.9814 27.4766ZM102.45 23.9192V24.0087C103 24.2026 103.416 24.5307 103.699 24.9931C103.981 25.4555 104.123 25.9701 104.123 26.5369C104.123 27.3722 103.818 28.1106 103.208 28.7519C102.598 29.3784 101.766 29.6916 100.71 29.6916H94.1735V27.2529H100.42C100.747 27.2529 101.007 27.1485 101.2 26.9397C101.394 26.7308 101.49 26.4922 101.49 26.2237C101.49 25.9701 101.394 25.7464 101.2 25.5525C101.022 25.3586 100.762 25.2616 100.42 25.2616H96.0027V23.0019H100.219C100.546 23.0019 100.799 22.9049 100.977 22.711C101.171 22.5022 101.267 22.2635 101.267 21.995C101.267 21.7266 101.178 21.4954 101 21.3015C100.821 21.1075 100.561 21.0106 100.219 21.0106H94.1735V18.5718H100.464C101.55 18.5718 102.39 18.8702 102.985 19.4668C103.58 20.0485 103.877 20.7496 103.877 21.5699C103.877 22.0622 103.751 22.5246 103.498 22.9571C103.26 23.3897 102.911 23.7104 102.45 23.9192Z" fill="#161616"/>
<path d="M117.498 18.5718V29.6916H114.933V21.0553H110.404C110.404 22.5618 110.375 24.0012 110.315 25.3734C110.286 26.0745 110.196 26.6935 110.048 27.2305C109.914 27.7525 109.728 28.1702 109.49 28.4834C109.252 28.7817 109.021 29.0278 108.798 29.2217C108.575 29.4007 108.285 29.5275 107.928 29.6021C107.586 29.6767 107.319 29.7214 107.125 29.7363C106.932 29.7512 106.672 29.7587 106.344 29.7587H105.876V27.2081H106.121C106.359 27.2081 106.545 27.2006 106.679 27.1857C106.813 27.1559 106.977 27.0888 107.17 26.9843C107.363 26.8799 107.512 26.686 107.616 26.4026C107.735 26.1192 107.809 25.7538 107.839 25.3063C107.899 24.6053 107.928 22.3604 107.928 18.5718H117.498ZM125.878 30.0048C124.108 30.0048 122.665 29.4455 121.55 28.3268C120.434 27.1932 119.877 25.7911 119.877 24.1205C119.877 22.4499 120.427 21.0553 121.528 19.9366C122.643 18.8179 124.093 18.2585 125.878 18.2585C127.632 18.2585 129.053 18.8179 130.138 19.9366C131.239 21.0553 131.789 22.4499 131.789 24.1205C131.789 25.7911 131.239 27.1932 130.138 28.3268C129.038 29.4455 127.618 30.0048 125.878 30.0048ZM125.878 27.5437C126.859 27.5437 127.662 27.2155 128.287 26.5592C128.911 25.9029 129.224 25.0975 129.224 24.1429C129.224 23.1733 128.911 22.3679 128.287 21.7265C127.662 21.0702 126.859 20.742 125.878 20.742C124.866 20.742 124.041 21.0702 123.401 21.7265C122.777 22.3679 122.464 23.1733 122.464 24.1429C122.464 25.0975 122.777 25.9029 123.401 26.5592C124.041 27.2155 124.866 27.5437 125.878 27.5437ZM142.783 18.5718V21.0776H136.782V29.6916H134.216V18.5718H142.783Z" fill="#E95420"/>
</g>
</svg>
